<?xml version="1.0" standalone="no"?>
<!DOCTYPE svg PUBLIC "-//W3C//DTD SVG 20010904//EN"
 "http://www.w3.org/TR/2001/REC-SVG-20010904/DTD/svg10.dtd">
<svg version="1.0" xmlns="http://www.w3.org/2000/svg"
 width="550.000000pt" height="550.000000pt" viewBox="0 0 550.000000 550.000000"
 preserveAspectRatio="xMidYMid meet">
<metadata>
Created by potrace 1.11, written by Peter Selinger 2001-2013
</metadata>
<g transform="translate(0.000000,550.000000) scale(0.100000,-0.100000)"
fill="#000000" stroke="none">
<path d="M2510 5354 c-14 -2 -65 -9 -115 -15 -266 -32 -544 -117 -810 -249
-295 -146 -503 -297 -730 -532 -209 -216 -340 -403 -470 -671 -126 -260 -193
-476 -236 -758 -26 -171 -32 -532 -11 -689 17 -128 56 -316 87 -424 92 -316
266 -648 482 -916 331 -412 847 -745 1364 -879 922 -238 1878 18 2544 684 217
216 374 437 506 710 88 182 133 305 179 490 52 205 71 347 77 565 12 433 -67
819 -247 1197 -388 817 -1167 1373 -2069 1478 -113 13 -479 19 -551 9z m471
-868 c312 -42 604 -165 854 -360 107 -84 264 -250 348 -366 129 -181 237 -432
289 -670 20 -93 22 -133 22 -340 0 -207 -2 -247 -22 -340 -77 -353 -241 -659
-482 -900 -241 -241 -547 -405 -900 -482 -93 -20 -133 -22 -340 -22 -207 0
-247 2 -340 22 -238 52 -488 160 -670 289 -264 189 -498 484 -610 768 -98 252
-124 394 -124 670 0 189 3 223 27 336 159 752 751 1301 1507 1398 105 14 326
12 441 -3z"/>
<path d="M2548 3600 c-271 -69 -499 -260 -602 -508 -63 -151 -85 -367 -52
-522 71 -334 337 -603 670 -677 105 -24 299 -21 401 6 436 114 718 537 651
978 -50 332 -276 600 -596 705 -86 28 -109 31 -245 34 -124 3 -163 0 -227 -16z"/>
</g>
</svg>
